<?xml version="1.0" encoding="UTF-8" standalone="no"?>
<!-- Created with Inkscape (http://www.inkscape.org/) -->

<svg
   viewBox="0 0 36.752075 50.376711"
   version="1.1"
   id="svg5"
   xml:space="preserve"
   xmlns:xlink="http://www.w3.org/1999/xlink"
   xmlns="http://www.w3.org/2000/svg"
   xmlns:svg="http://www.w3.org/2000/svg"><defs
     id="defs2"><linearGradient
       id="linearGradient20846"><stop
         style="stop-color:#3857ee;stop-opacity:1;"
         offset="0"
         id="stop20842" /><stop
         style="stop-color:#00d0f8;stop-opacity:1;"
         offset="1"
         id="stop20844" /></linearGradient><linearGradient
       id="linearGradient14744"><stop
         style="stop-color:#00d0fb;stop-opacity:1;"
         offset="0"
         id="stop14740" /><stop
         style="stop-color:#3c59f3;stop-opacity:1;"
         offset="1"
         id="stop14742" /></linearGradient><linearGradient
       xlink:href="#linearGradient20846"
       id="linearGradient16721"
       gradientUnits="userSpaceOnUse"
       gradientTransform="translate(1182.5949,205.60159)"
       x1="328.49628"
       y1="-93.653664"
       x2="327.88071"
       y2="-139.17989" /><linearGradient
       xlink:href="#linearGradient14744"
       id="linearGradient16723"
       gradientUnits="userSpaceOnUse"
       x1="1070.3212"
       y1="156.10968"
       x2="1064.1711"
       y2="207.91856" /><linearGradient
       xlink:href="#linearGradient14744"
       id="linearGradient16725"
       gradientUnits="userSpaceOnUse"
       x1="1070.3212"
       y1="156.10968"
       x2="1064.1711"
       y2="207.91856" /></defs><g
     id="layer1"
     transform="translate(-1461.8853,-292.01647)"><g
       id="g16719"
       transform="translate(-36.752055,218.45821)"><path
         id="path16713"
         style="fill:none;fill-opacity:1;stroke:url(#linearGradient16721);stroke-width:4.23333;stroke-linecap:round;stroke-linejoin:round;stroke-dasharray:none;stroke-dashoffset:0;stroke-opacity:1;paint-order:fill markers stroke"
         d="m 1517.0172,75.674941 a 6.7818227,6.7818227 0 0 0 -6.782,6.78202 6.7818227,6.7818227 0 0 0 6.782,6.7815 6.7818227,6.7818227 0 0 0 6.7815,-6.7815 6.7818227,6.7818227 0 0 0 -6.7815,-6.78202 z m -0.5023,13.71751 a 16.212742,16.212742 0 0 0 -10.8716,4.70514 16.212742,16.212742 0 0 0 -2.6107,19.580709 l -0.053,-0.0687 -2.2257,8.2088 8.2217,-2.17712 -0.068,-0.0527 a 16.212742,16.212742 0 0 0 19.5962,-2.49494 16.212742,16.212742 0 0 0 0.067,-22.928309 16.212742,16.212742 0 0 0 -12.0561,-4.77284 z" /><g
         aria-label="+"
         id="g16717"
         style="font-weight:bold;font-size:21.6261px;font-family:Pacifico;-inkscape-font-specification:'Pacifico Bold';text-align:center;text-anchor:middle;fill:url(#linearGradient16725);fill-opacity:1;stroke-width:8.34575;stroke-linecap:round;stroke-linejoin:round"
         transform="translate(438.80853,-94.308968)"><path
           d="m 1083.1142,199.90997 q 0.4974,0 0.7569,0.30276 0.2595,0.30277 0.2595,0.73529 0,0.54065 -0.3676,0.9948 -0.346,0.43252 -0.9516,0.43252 h -3.5466 l -0.4758,3.95758 q -0.086,0.56228 -0.4974,0.86504 -0.3893,0.30277 -0.9083,0.30277 -0.4974,0 -0.8218,-0.30277 -0.3028,-0.30276 -0.2379,-0.86504 l 0.4758,-3.95758 h -3.5034 q -0.4974,0 -0.757,-0.30276 -0.2595,-0.32439 -0.2595,-0.75692 0,-0.54065 0.3461,-0.97317 0.3676,-0.43252 0.9731,-0.43252 h 3.5251 l 0.4758,-3.95758 q 0.065,-0.54065 0.4541,-0.84342 0.3893,-0.30276 0.8867,-0.30276 0.4974,0 0.8434,0.30276 0.346,0.30277 0.2811,0.84342 l -0.4757,3.95758 z"
           id="path16715"
           style="fill:url(#linearGradient16723);fill-opacity:1" /></g></g></g></svg>
