<?xml version="1.0" encoding="utf-8"?>
<!-- Generator: Adobe Illustrator 24.1.1, SVG Export Plug-In . SVG Version: 6.00 Build 0)  -->
<svg version="1.1" id="Layer_1" xmlns="http://www.w3.org/2000/svg" xmlns:xlink="http://www.w3.org/1999/xlink" x="0px" y="0px"
	 viewBox="0 0 512 512" style="enable-background:new 0 0 512 512;" xml:space="preserve">
<g>
	<path d="M69.8,69.8v23.3h372.4c6.4,0,12.1,2.6,16.4,6.9c4.3,4.3,6.8,10,6.9,16.4v279.3c0,6.4-2.6,12.1-6.9,16.4
		c-4.3,4.3-10,6.8-16.4,6.9H69.8c-6.4,0-12.1-2.6-16.4-6.9c-4.3-4.3-6.8-10-6.9-16.4V116.4c0-6.4,2.6-12.1,6.9-16.4
		c4.3-4.3,10-6.8,16.4-6.9V69.8V46.5C31.3,46.6,0.1,77.8,0,116.4v279.3c0.1,38.6,31.3,69.7,69.8,69.8l372.4,0
		c38.6-0.1,69.7-31.3,69.8-69.8V116.4c-0.1-38.6-31.3-69.7-69.8-69.8H69.8V69.8z"/>
	<path d="M475.4,97.3L256,250.9L36.6,97.3c-10.5-7.4-25-4.8-32.4,5.7c-7.4,10.5-4.8,25,5.7,32.4l232.7,162.9c8,5.6,18.7,5.6,26.7,0
		l232.7-162.9c10.5-7.4,13.1-21.9,5.7-32.4C500.4,92.5,485.9,89.9,475.4,97.3L475.4,97.3z"/>
</g>
</svg>
