<?xml version="1.0" encoding="UTF-8" standalone="no"?>
<svg
   viewBox="0 -960 960 960"
   version="1.1"
   id="svg36165"
   sodipodi:docname="account_balance_wallet_FILL0_wght400_GRAD0_opsz48.svg"
   inkscape:version="1.2.2 (732a01da63, 2022-12-09)"
   xmlns:inkscape="http://www.inkscape.org/namespaces/inkscape"
   xmlns:sodipodi="http://sodipodi.sourceforge.net/DTD/sodipodi-0.dtd"
   xmlns="http://www.w3.org/2000/svg"
   xmlns:svg="http://www.w3.org/2000/svg">
  <defs
     id="defs36169" />
  <sodipodi:namedview
     id="namedview36167"
     pagecolor="#ffffff"
     bordercolor="#000000"
     borderopacity="0.25"
     inkscape:showpageshadow="2"
     inkscape:pageopacity="0.0"
     inkscape:pagecheckerboard="0"
     inkscape:deskcolor="#d1d1d1"
     showgrid="false"
     inkscape:zoom="17.291667"
     inkscape:cx="19.836145"
     inkscape:cy="24.028916"
     inkscape:window-width="1920"
     inkscape:window-height="991"
     inkscape:window-x="-9"
     inkscape:window-y="-9"
     inkscape:window-maximized="1"
     inkscape:current-layer="svg36165" />
  <path
     d="M652-416q25 0 44.5-19.5t19.5-45q0-25.5-19.5-44.5T652-544q-25 0-44.5 19T588-480.5q0 25.5 19.5 45T652-416ZM180-233v53-600 547Zm0 113q-23 0-41.5-18T120-180v-600q0-23 18.5-41.5T180-840h600q24 0 42 18.5t18 41.5v134h-60v-134H180v600h600v-133h60v133q0 24-18 42t-42 18H180Zm358-173q-34 0-54-20t-20-53v-227q0-34 20-53.5t54-19.5h270q34 0 54 19.5t20 53.5v227q0 33-20 53t-54 20H538Zm284-60v-253H524v253h298Z"
     id="path36163"
     style="fill:#04a24c;fill-opacity:1" />
</svg>
